# xmcd
#
# Track frame offsets:
#	4500
#	9000
#	13500
#	18000
#	22500
#	27000
#	31500
#	36000
#	40500
#	45000
#	49500
#	54000
#	58500
#	63000
#	67500
#	72000
#
# Disc length: 4280 seconds
#
# Revision: 0
# Processed by: cddbd v1.4PL0 Copyright (c) Steve Scherf et al.
# Submitted via: EasyCDDAExtractor 5.0.4.1
#
DISCID=8d107c10
DTITLE=Various Artist - Danial and Kelli's Wedding CD
DYEAR=2002
DGENRE=Blues
TTITLE0=Tilt A Whirl
TTITLE1=Love of My Life
TTITLE2=Is This Love?
TTITLE3=Ramon
TTITLE4=Chitlins Con Carne
TTITLE5=What Would You Say?
TTITLE6=Mis Amigos
TTITLE7=Throne of Gold
TTITLE8=Your House
TTITLE9=Wrapped Around Your Finger
TTITLE10=Hillbillies From Outer Space
TTITLE11=Cantaloop
TTITLE12=Diamonds On The Soles Of Her Shoes
TTITLE13=Next Exit
TTITLE14=Grapefruit Juicyfruit
TTITLE15=Thank You
EXTD=
EXTT0=by Jimmie Vaughn
EXTT1=by Santana and Dave Matthews
EXTT2=by Bob Marley
EXTT3=by 00-Soul
EXTT4=by Stevie Ray Vaughn
EXTT5=by Dave Matthews
EXTT6=by Pete Escovedo
EXTT7=by Steele Pulse
EXTT8=by Steele Pulse
EXTT9=by The Police
EXTT10=by The Vaughn Brothers
EXTT11=by US3
EXTT12=by Paul Simon
EXTT13=by Pancho Sanchez
EXTT14=by Jimmy Buffett
EXTT15=by Dido
PLAYORDER=
